<svg width="100" height="100" viewBox="0 0 100 100" fill="none" xmlns="http://www.w3.org/2000/svg">
<path d="M0 12C0 5.37258 5.37258 0 12 0H88C94.6274 0 100 5.37258 100 12V50C100 77.6142 77.6142 100 50 100V100C22.3858 100 0 77.6142 0 50V12Z" fill="white"/>
<g clip-path="url(#clip0_96_3)">
<path d="M60.3892 11.0003L49.9974 29.013L39.6053 11.0007H4.99847L49.9974 89L94.9964 11L60.3892 11.0003Z" fill="#41B883"/>
<path d="M60.389 11.0004L49.9972 29.0131L39.6051 11.0007H22.9979L49.9972 57.7993L76.9965 11.0004H60.389Z" fill="#34495E"/>
</g>
<defs>
<clipPath id="clip0_96_3">
<rect width="90" height="78" fill="white" transform="translate(5 11)"/>
</clipPath>
</defs>
</svg>
