<svg width="100" height="100" viewBox="0 0 100 100" fill="none" xmlns="http://www.w3.org/2000/svg">
<rect width="100" height="100" rx="12" fill="white"/>
<g clip-path="url(#clip0_96_6)">
<path d="M0 50V100H100V0H0V50ZM25.6 13.4667C25.8111 14.1556 27.0667 18.2444 28.3889 22.5556C30.9778 30.9778 33.5333 39.3222 33.9444 40.6667L34.2111 41.5L34.2444 26.8889L34.2778 12.2778L40.5333 12.2444L46.7778 12.2222V84.5556H34.3444L34.1222 83.8C34 83.3889 33 79.9 31.8889 76.0556C30.7889 72.2 28.8667 65.5333 27.6333 61.2444L25.3889 53.4222L25.3556 68.9556C25.3444 78.0111 25.2889 84.5111 25.2333 84.5444C25.1778 84.5778 22.3778 84.6 19.0111 84.5778L12.8889 84.5556V12.2222H25.2111L25.6 13.4667ZM86.8667 29.4444H87.1111L87.0778 53.8C87.0556 76.6222 87.0333 78.2111 86.8556 78.8C86.4111 80.2778 85.8444 81.2222 84.8111 82.2667C83.6889 83.4 82.5444 84.0444 81.0556 84.3889C80.4222 84.5444 78.9 84.5667 69.8889 84.5556C59.9 84.5556 59.4333 84.5444 58.6111 84.3333C57.3222 84 56.3222 83.4222 55.2889 82.3889C53.8778 80.9889 53.2222 79.6444 52.9889 77.7222C52.9333 77.2333 52.8889 73.4556 52.8889 69.3222V61.8111L53.9222 61.5778C54.4778 61.4556 57.2222 60.8222 60 60.1778C62.7778 59.5333 65.1444 59 65.2556 58.9778C65.4444 58.9444 65.4556 59.2667 65.4444 65.4667V72H74.5556V29.5C74.5556 29.4222 76.6222 29.4 80.5778 29.4111C83.9 29.4333 86.7222 29.4444 86.8667 29.4444Z" fill="#1C4913"/>
</g>
<defs>
<clipPath id="clip0_96_6">
<rect width="100" height="100" rx="12" fill="white"/>
</clipPath>
</defs>
</svg>
