<svg width="100" height="100" viewBox="0 0 100 100" fill="none" xmlns="http://www.w3.org/2000/svg">
<rect width="100" height="100" rx="50" fill="white"/>
<path d="M31.5023 31.6471L26.362 26.5068V63.5746L26.4344 65.3122C26.4344 66.1086 26.5792 67.0498 26.8688 67.9909L67.5566 82.3258L77.6923 77.8371L31.5023 31.6471Z" fill="#00C4B3"/>
<path d="M77.6923 77.8371L67.5566 82.3258L26.9412 67.991C27.7375 70.9593 29.4027 74.2896 31.2851 76.172L44.5339 89.3484L74.0724 89.4208L77.6923 77.8371Z" fill="#22D3C5"/>
<path d="M26.5068 26.5068L10.724 50.3982C9.42083 51.7737 10.0724 54.6697 12.172 56.8416L21.2941 66.0362L27.0136 68.0633C26.7964 67.1222 26.5792 66.181 26.5792 65.3846L26.5068 63.647V26.5068Z" fill="#0075C9"/>
<path d="M67.8461 26.9412C66.905 26.724 65.9638 26.5792 65.1674 26.5068L63.3575 26.4344H26.362L77.6923 77.7647L82.181 67.629L67.8461 26.9412Z" fill="#0075C9"/>
<path d="M76.0272 31.2851C74.1448 29.4027 70.8869 27.6651 67.8461 26.9412L82.181 67.6289L77.6923 77.7647L88.6968 74.2172V44.0271L76.0272 31.2851Z" fill="#00A8E1"/>
<path d="M65.819 21.2941L56.6244 12.172C54.5249 10.0724 51.629 9.42083 50.181 10.724L26.2896 26.5068H63.2851L65.095 26.5792C65.8914 26.5792 66.8326 26.724 67.7738 27.0136L65.819 21.2941Z" fill="#00C4B3"/>
</svg>
