<svg width="100" height="100" viewBox="0 0 100 100" fill="none" xmlns="http://www.w3.org/2000/svg">
<g clip-path="url(#clip0_95_61)">
<path d="M100 0H0V100H100V0Z" fill="#F0DB4F"/>
<path d="M74.5722 45.4373C71.0076 45.7034 67.9278 47.0057 65.7319 49.192C63.365 51.5399 62.2624 54.3061 62.2624 57.8802C62.2624 63.1844 64.4487 66.8916 69.2966 69.8194C70.5133 70.5513 72.1863 71.3498 75.1426 72.6236C77.9658 73.8403 79.211 74.4487 80.2376 75.1046C81.6255 75.9981 82.405 77.1103 82.5951 78.4791C82.9468 80.9601 81.2643 82.9468 78.27 83.5646C76.9677 83.8403 74.8954 83.7833 73.5742 83.4316C71.1597 82.8042 69.2776 81.3783 67.6141 78.9258C67.3194 78.4886 67.0437 78.1369 67.0057 78.1369C66.9202 78.1369 59.6863 82.3099 59.5342 82.4525C59.4392 82.538 59.5152 82.7376 59.8859 83.346C62.7567 88.1844 67.3479 91.0836 73.3365 91.8726C74.981 92.0912 77.8707 92.0912 79.4677 91.8821C83.289 91.3688 86.2167 90.076 88.4696 87.8992C90.4183 86.0171 91.5589 83.6502 91.9202 80.7604C92.0722 79.6103 91.9962 77.1958 91.7776 76.0171C91.3308 73.5741 90.2567 71.5114 88.5171 69.7338C86.5114 67.6901 83.8878 66.1312 78.6977 63.8973C74.7814 62.2148 73.4696 61.4924 72.6046 60.5703C71.7776 59.6863 71.4259 58.6502 71.5019 57.3574C71.5684 56.3308 71.8536 55.6369 72.481 54.962C73.384 53.9829 74.4297 53.5741 76.0456 53.5836C77.8897 53.5836 79.0494 54.0494 80.2757 55.2757C80.7034 55.6939 81.2548 56.3688 81.5114 56.7776C81.7681 57.1863 82.0247 57.5 82.0913 57.4715C82.1958 57.4335 89.173 52.9753 89.2491 52.8897C89.3156 52.8232 88.2605 51.2357 87.6331 50.4468C85.1426 47.3384 81.9297 45.7605 77.4715 45.4468C75.9886 45.3327 75.9886 45.3327 74.5722 45.4373ZM44.9335 62.7091L44.9049 79.5152L44.6958 80.3042C44.0494 82.7186 42.7281 83.6597 39.981 83.6692C37.557 83.6787 36.0742 82.6426 34.3821 79.7338C34.1065 79.2776 33.8593 78.9068 33.8308 78.9163C33.7928 78.9354 32.0723 79.9715 30.0095 81.2262L26.2548 83.4981L26.5684 84.1255C28.2605 87.481 31.1977 90.0285 34.7338 91.2072C38.0989 92.3289 42.6426 92.3479 45.9506 91.2357C50.7415 89.6388 53.5456 85.9316 54.1825 80.3707C54.2396 79.8194 54.2776 73.6027 54.2776 62.7091V45.9125H44.9715L44.9335 62.7091Z" fill="#323330"/>
</g>
<defs>
<clipPath id="clip0_95_61">
<path d="M0 50C0 22.3858 22.3858 0 50 0V0C77.6142 0 100 22.3858 100 50V88C100 94.6274 94.6274 100 88 100H50C22.3858 100 0 77.6142 0 50V50Z" fill="white"/>
</clipPath>
</defs>
</svg>
