<svg width="100" height="100" viewBox="0 0 100 100" fill="none" xmlns="http://www.w3.org/2000/svg">
<rect width="100" height="100" rx="50" fill="white"/>
<g clip-path="url(#clip0_96_8)">
<path fill-rule="evenodd" clip-rule="evenodd" d="M49.8396 72.9952C45.1958 72.9952 41.6075 72.2942 39.882 71.8764C38.702 71.5907 37.7545 71.2951 37.0347 70.9915L39.336 74.9425L40.2362 87.2875C40.2362 88.6715 44.6113 89.7933 50.0083 89.7933C55.4052 89.7933 59.7803 88.6715 59.7803 87.2875L60.4931 74.8081L62.6706 70.9799C61.9477 71.2877 60.9918 71.5872 59.797 71.8764C58.0714 72.2942 54.4832 72.9952 49.8396 72.9952ZM62.7453 32.824C59.337 33.3024 54.8135 33.5659 50.0083 33.5659C45.203 33.5659 40.6795 33.3024 37.2712 32.824C35.583 32.5871 34.2472 32.3076 33.3012 31.9938C33.0755 31.9188 32.6931 31.7908 32.3251 31.587L34.4367 51.1163C34.5355 50.7773 34.6451 50.4415 34.7652 50.1094C35.0134 49.4229 35.3006 48.7513 35.6253 48.0978C35.9424 47.4579 36.2975 46.8377 36.6887 46.2407C37.0582 45.6756 37.4669 45.1375 37.9118 44.6303C38.3443 44.14 38.7878 43.7183 39.2432 43.3648C39.6985 43.0117 40.158 42.7356 40.6219 42.5367C41.086 42.3378 41.5456 42.2382 42.0008 42.2382C42.5252 42.2382 43.0325 42.3823 43.5225 42.6704C44.0123 42.9584 44.4702 43.425 44.8969 44.0697C44.9948 44.2138 45.0569 44.3595 45.0826 44.5069C45.1088 44.6545 45.1215 44.7934 45.1215 44.9237C45.1215 45.2323 45.0481 45.476 44.9012 45.6542C44.7543 45.8326 44.5799 45.9217 44.3783 45.9217C44.1935 45.9217 44.0222 45.8239 43.8638 45.6286C43.7052 45.433 43.528 45.1535 43.332 44.7899C43.1475 44.4606 42.9444 44.2225 42.7227 44.0749C42.5007 43.9275 42.2602 43.8537 42.0008 43.8537C41.5974 43.8537 41.1667 44.0218 40.7085 44.3579C40.2502 44.6938 39.7964 45.138 39.3471 45.6902C38.8974 46.2425 38.4667 46.8734 38.0546 47.5835C37.6456 48.2872 37.2803 49.0156 36.9608 49.7646C36.6438 50.5092 36.392 51.2433 36.2046 51.9668C36.0172 52.6903 35.9236 53.3402 35.9236 53.9163C35.9236 54.1086 35.9368 54.306 35.9625 54.508C35.9886 54.7105 36.0374 54.8939 36.1096 55.0586C36.1814 55.2234 36.2795 55.3586 36.4033 55.4646C36.5274 55.5713 36.6843 55.6242 36.8744 55.6242C37.0878 55.6242 37.3297 55.5523 37.6008 55.4082C37.8715 55.2645 38.1525 55.0756 38.4434 54.8426C38.7504 54.595 39.0433 54.3304 39.321 54.0501C39.6074 53.7637 39.8814 53.4651 40.1422 53.155C40.379 52.8749 40.6039 52.5849 40.8163 52.2857C41.0124 52.0079 41.1592 51.766 41.2574 51.5602L42.0613 49.1422C42.1592 48.8817 42.2874 48.6965 42.446 48.5867C42.6044 48.4769 42.7673 48.422 42.9346 48.422C43.015 48.422 43.0956 48.4358 43.1765 48.4631C43.2573 48.4906 43.3291 48.5336 43.3927 48.5917C43.456 48.6502 43.5064 48.7254 43.5439 48.8182C43.5813 48.9106 43.6 49.0188 43.6 49.1422C43.6 49.4715 43.5712 49.7799 43.5136 50.0683C43.4568 50.3537 43.3832 50.6354 43.2931 50.9121C43.202 51.1911 43.1026 51.4673 42.9948 51.7402C42.8818 52.0276 42.7752 52.3176 42.6752 52.6099C42.6521 52.6442 42.6104 52.7519 42.5497 52.9336C42.4892 53.1157 42.416 53.3439 42.3294 53.618C42.243 53.8926 42.1491 54.1993 42.0483 54.539C41.9473 54.8786 41.8439 55.2249 41.7373 55.5781C41.6328 55.9239 41.5305 56.2704 41.4304 56.6175C41.2759 57.1537 41.1231 57.6904 40.972 58.2276C40.942 58.3379 40.9103 58.4478 40.877 58.5572C40.8482 58.6665 40.8019 58.7885 40.7388 58.922C40.6756 59.0556 40.6003 59.1831 40.5139 59.3028C40.4342 59.416 40.338 59.5165 40.2286 59.6011C40.1249 59.6798 40.0184 59.7195 39.9087 59.7195C39.7244 59.7195 39.5903 59.6577 39.507 59.5345C39.4232 59.4109 39.3817 59.1845 39.3817 58.8554V58.7114C39.3817 58.6632 39.3843 58.6115 39.3901 58.5572C39.3957 58.4472 39.4391 58.2413 39.5199 57.9393C39.6006 57.6377 39.697 57.2966 39.8096 56.9158C39.9219 56.535 40.043 56.1406 40.1726 55.7323C40.302 55.3243 40.4189 54.9592 40.5228 54.6367C40.2056 54.9917 39.8739 55.3332 39.5286 55.6606C39.1832 55.99 38.8164 56.2958 38.4307 56.5762C38.0558 56.8472 37.6784 57.0684 37.2982 57.2399C36.9178 57.4113 36.5519 57.4973 36.2003 57.4973C35.7969 57.4973 35.4496 57.408 35.1584 57.2296C35.1059 57.1972 35.0563 57.161 35.007 57.125L36.182 69.505C36.4879 70.2754 42.2467 72.1683 49.8396 72.1683C57.436 72.1683 63.197 70.2735 63.4976 69.5037L65.1854 54.785C65.0458 54.9137 64.9098 55.0396 64.7798 55.1616C64.2955 55.6141 63.8386 56.0034 63.4093 56.3291C62.9802 56.6549 62.5607 56.9073 62.1516 57.0853C61.7422 57.2639 61.3042 57.353 60.8375 57.353C60.3995 57.353 60.0607 57.2569 59.8216 57.0649C59.5826 56.873 59.4629 56.609 59.4629 56.2727V56.1956C59.4629 56.1716 59.4658 56.1423 59.4717 56.108C59.4946 55.9025 59.5843 55.6654 59.7398 55.3981C59.9097 55.109 60.0973 54.8307 60.3014 54.5648C60.5277 54.2675 60.7612 53.9758 61.0016 53.69C61.2345 53.4135 61.4637 53.1339 61.6891 52.8513C61.8994 52.5877 62.0736 52.3459 62.2118 52.1261C62.3505 51.9066 62.4196 51.7284 62.4196 51.5912C62.4196 51.5089 62.3906 51.4438 62.3332 51.3954C62.2754 51.3479 62.1802 51.3235 62.0479 51.3235C61.8173 51.3235 61.5795 51.3836 61.3349 51.5035C61.0897 51.6234 60.8473 51.7851 60.6083 51.9872C60.358 52.2009 60.1239 52.433 59.908 52.6818C59.6814 52.9417 59.4679 53.2129 59.2685 53.4944C59.0742 53.769 58.8925 54.0523 58.724 54.3436C58.5744 54.6005 58.4345 54.863 58.3045 55.1304C58.2699 55.206 58.221 55.3125 58.1574 55.4494C58.0941 55.5866 58.0249 55.7412 57.9501 55.9126C57.875 56.0842 57.7958 56.2609 57.7123 56.4422C57.6338 56.6128 57.5575 56.7844 57.4833 56.9569L57.2977 57.389C57.26 57.4771 57.221 57.5646 57.1807 57.6515C57.1519 57.7131 57.1044 57.8295 57.0381 58.0011C56.9719 58.1727 56.8954 58.3734 56.8092 58.603L56.5366 59.3286C56.373 59.7673 56.2102 60.2063 56.0484 60.6456C55.9851 60.8168 55.9443 60.9336 55.9271 60.9954C55.8717 61.1682 55.8039 61.3368 55.7242 61.4998C55.6518 61.649 55.5618 61.7889 55.4562 61.9165C55.3595 62.033 55.2423 62.1306 55.1104 62.2043C54.9806 62.2766 54.8351 62.3124 54.6741 62.3124C54.4663 62.3124 54.2951 62.2624 54.1594 62.1631C54.0242 62.0637 53.9563 61.8731 53.9563 61.5922C53.9563 61.4549 53.9736 61.3144 54.0082 61.1705C54.0427 61.0264 54.0861 60.8838 54.138 60.7434C54.1898 60.6024 54.2433 60.4656 54.298 60.3318C54.3525 60.1979 54.4031 60.0695 54.449 59.9459C54.7621 59.2564 55.0792 58.5687 55.4 57.8828C55.7179 57.2041 56.0277 56.5216 56.3294 55.8355C56.3912 55.6945 56.4479 55.5564 56.5082 55.4163C56.4901 55.4341 56.4724 55.4527 56.4547 55.47C56.0799 55.8338 55.707 56.1543 55.3352 56.4321C54.9633 56.7099 54.5944 56.9311 54.2289 57.0959C53.8627 57.2602 53.5068 57.3427 53.1608 57.3427C52.9247 57.3427 52.7274 57.3051 52.569 57.2296C52.4104 57.1539 52.2839 57.051 52.1886 56.921C52.0934 56.7907 52.0255 56.6363 51.9852 56.4579C51.9716 56.3969 51.9632 56.3333 51.9543 56.2698C51.854 56.3486 51.752 56.4251 51.6482 56.4993C51.2909 56.7527 50.9393 56.9569 50.5935 57.1112C50.2479 57.2656 49.9365 57.3427 49.6602 57.3427C49.3833 57.3427 49.1587 57.2501 48.9854 57.0649C48.8126 56.8798 48.7264 56.5642 48.7264 56.1185C48.7264 55.8026 48.7725 55.4357 48.8645 55.0175C48.7147 55.285 48.5275 55.556 48.3029 55.8301C48.0744 56.108 47.8164 56.36 47.5335 56.5815C47.239 56.8112 46.9128 56.9966 46.5652 57.1318C46.2077 57.2724 45.8187 57.3427 45.3982 57.3427C45.2079 57.3427 45.025 57.3187 44.8491 57.2707C44.6782 57.2252 44.5199 57.1407 44.3867 57.0237C44.254 56.9073 44.1477 56.7511 44.0668 56.5557C43.9862 56.3604 43.9459 56.1148 43.9459 55.82C43.9459 55.8132 43.9574 55.7086 43.9804 55.506C44.0035 55.3036 44.0769 54.9846 44.2009 54.5491C44.3248 54.1137 44.5165 53.5494 44.7755 52.8565C45.0351 52.1638 45.4011 51.3235 45.8736 50.336C45.9946 50.0751 46.1344 49.8882 46.2926 49.7751C46.4515 49.6619 46.6226 49.6052 46.8069 49.6052C46.8878 49.6052 46.9713 49.6174 47.0577 49.6412C47.1445 49.6654 47.2249 49.703 47.3 49.7545C47.3747 49.8059 47.4354 49.8713 47.4817 49.95C47.5273 50.0288 47.5508 50.1195 47.5508 50.2225C47.5508 50.2911 47.5419 50.3566 47.5247 50.4178C47.4957 50.535 47.4337 50.6872 47.3391 50.8757C47.2439 51.0646 47.1328 51.2807 47.0059 51.5242C46.87 51.7857 46.7361 52.0481 46.6041 52.3116C46.4607 52.5973 46.3294 52.889 46.2108 53.186C46.0901 53.4869 45.9862 53.7944 45.8995 54.1069C45.8131 54.4191 45.764 54.7227 45.7526 55.0175C45.7526 55.1409 45.7812 55.254 45.839 55.3569C45.8966 55.4599 45.9919 55.5112 46.1244 55.5112C46.4988 55.5112 46.8561 55.3875 47.1963 55.1409C47.5362 54.8939 47.8501 54.5869 48.1385 54.22C48.4305 53.8472 48.6921 53.4515 48.9208 53.0365C49.1543 52.6146 49.3487 52.2291 49.5043 51.8791C49.6178 51.6357 49.7146 51.3848 49.7939 51.1281C49.8716 50.8765 49.9625 50.6292 50.0663 50.3872C50.1644 50.1607 50.2765 49.9721 50.4034 49.8212C50.5299 49.6705 50.6888 49.5949 50.8786 49.5949C51.0864 49.5949 51.2504 49.6738 51.3717 49.8316C51.4927 49.9895 51.553 50.178 51.553 50.3974C51.553 50.5208 51.5143 50.6909 51.4363 50.9069C51.3451 51.1565 51.2471 51.4036 51.1424 51.6478C51.0157 51.945 50.8875 52.2416 50.7579 52.5375C50.6192 52.8539 50.4909 53.1748 50.3734 53.4998C50.2587 53.8134 50.1605 54.1328 50.0792 54.4567C50.0013 54.7686 49.9626 55.0587 49.9626 55.3259C49.9626 55.573 50.0893 55.6966 50.3427 55.6966C50.5215 55.6966 50.7433 55.6348 51.0084 55.5112C51.2736 55.3875 51.5517 55.2145 51.8426 54.9915C51.9152 54.9359 51.9885 54.8778 52.0611 54.8168C52.1423 54.48 52.2376 54.1687 52.3485 53.8857C52.5501 53.3503 52.7547 52.8191 52.9623 52.2909C53.1521 51.8071 53.3424 51.3234 53.533 50.8399L56.1521 44.2035C56.2558 43.936 56.3957 43.7472 56.5712 43.6375C56.7472 43.5279 56.9244 43.4729 57.1031 43.4729C57.2815 43.4729 57.4442 43.5312 57.5913 43.6478C57.7384 43.7646 57.812 43.9531 57.812 44.2138C57.812 44.3372 57.7873 44.4676 57.7384 44.6047C57.6839 44.7552 57.6218 44.9029 57.5524 45.0471C57.3779 45.4401 57.2065 45.8346 57.0381 46.2303C56.581 47.3046 56.1343 48.3833 55.6981 49.4663C55.4652 50.0444 55.2318 50.6223 54.9979 51.2C54.7705 51.7627 54.557 52.2957 54.3581 52.8C54.1594 53.3042 53.9882 53.7417 53.8438 54.1119C53.7728 54.2922 53.7109 54.476 53.6582 54.6626C53.5976 54.8716 53.5675 55.0587 53.5675 55.2234C53.5675 55.3259 53.5848 55.4082 53.6194 55.47C53.6539 55.5318 53.7202 55.5628 53.8181 55.5628C53.939 55.5628 54.0902 55.52 54.2719 55.4341C54.4533 55.3485 54.6492 55.235 54.8596 55.0944C55.0854 54.9429 55.3046 54.7815 55.5165 54.6109C55.7467 54.4272 55.973 54.2386 56.1951 54.0451C56.4144 53.8547 56.6291 53.6591 56.8392 53.4584C57.0437 53.2631 57.227 53.083 57.3885 52.9183C57.4263 52.8788 57.4716 52.8509 57.5214 52.83C57.6164 52.5462 57.7047 52.2601 57.7859 51.9719C57.832 51.8483 57.8955 51.6736 57.9762 51.4471C58.0566 51.2205 58.149 50.9977 58.2527 50.7781C58.3563 50.5588 58.4734 50.3682 58.6026 50.2072C58.7324 50.0461 58.8723 49.9653 59.022 49.9653C59.2526 49.9653 59.4199 50.0187 59.5236 50.1247C59.6272 50.2314 59.6791 50.3872 59.6791 50.5931C59.6791 50.6343 59.6733 50.6994 59.6618 50.7885C59.6501 50.8778 59.6361 50.9722 59.6188 51.0717C59.6015 51.1709 59.5826 51.2654 59.5624 51.3547C59.5421 51.4438 59.5236 51.5089 59.5063 51.55C59.727 51.3089 59.9577 51.0773 60.1977 50.8557C60.4395 50.6305 60.6966 50.4224 60.9671 50.233C61.2216 50.0538 61.494 49.902 61.7801 49.7799C62.0563 49.6637 62.3332 49.6052 62.6097 49.6052C62.7998 49.6052 62.9886 49.6327 63.1758 49.6877C63.363 49.7425 63.5305 49.8231 63.6771 49.9294C63.8241 50.0357 63.9465 50.1726 64.0359 50.3308C64.1281 50.4918 64.1741 50.6787 64.1741 50.8914C64.1741 51.173 64.1038 51.4729 63.9625 51.7919C63.8126 52.1269 63.6347 52.4486 63.4309 52.7535C63.2158 53.0785 62.985 53.3927 62.7395 53.6951C62.5117 53.9764 62.2797 54.2542 62.0436 54.5284C61.8607 54.74 61.679 54.9526 61.4986 55.1664C61.3522 55.3417 61.2752 55.4599 61.2697 55.5217C61.2697 55.604 61.2958 55.6707 61.3476 55.7224C61.3995 55.7737 61.4859 55.7995 61.6068 55.7995C61.7048 55.7995 61.8492 55.7445 62.039 55.6348C62.2291 55.525 62.4959 55.3348 62.8387 55.0638C63.1814 54.7928 63.6169 54.4292 64.1441 53.973C64.5673 53.6061 64.988 53.2363 65.4062 52.8637L67.6925 31.5864C67.3243 31.7906 66.9412 31.9188 66.7153 31.9938C65.7695 32.3076 64.4338 32.5871 62.7453 32.824ZM49.9947 27.7758C40.1103 27.7758 32.0975 28.8862 32.0975 30.2564C32.0975 31.6265 40.1103 32.737 49.9947 32.737C59.879 32.737 67.8918 31.6265 67.8918 30.2564C67.8918 28.8862 59.879 27.7758 49.9947 27.7758ZM57.1408 30.9813C57.1408 31.3028 56.1885 31.5635 55.0137 31.5635C53.8391 31.5635 52.8868 31.3028 52.8868 30.9813C52.8868 30.6597 53.8391 30.399 55.0137 30.399C56.1885 30.399 57.1408 30.6597 57.1408 30.9813Z" fill="#DA4648"/>
<path fill-rule="evenodd" clip-rule="evenodd" d="M53.3176 30.7239C53.3074 30.7393 53.3018 30.7572 53.3015 30.7756C53.3015 30.9838 54.0682 31.1523 55.0137 31.1523C55.9593 31.1523 56.7258 30.9838 56.7258 30.7756L58.9622 21.6639L67.8558 12.2282C67.8587 12.2254 67.8615 12.2224 67.8642 12.2193C68.0525 12.0054 67.6705 11.3433 67.0366 10.7754C66.4028 10.2076 65.7184 10.0153 65.5057 10.2315C65.5041 10.2332 65.5025 10.2348 65.501 10.2365L56.012 20.2702L53.3176 30.7239Z" fill="#DA4648"/>
</g>
<defs>
<clipPath id="clip0_96_8">
<rect width="36" height="80" fill="white" transform="translate(32 10)"/>
</clipPath>
</defs>
</svg>
