<svg width="100" height="100" viewBox="0 0 100 100" fill="none" xmlns="http://www.w3.org/2000/svg">
<rect width="100" height="100" rx="50" fill="white"/>
<g clip-path="url(#clip0_95_75)">
<path d="M78 25.7219L72.8072 83.5655L49.4651 90L26.1873 83.5745L21 25.7219H78Z" fill="#264DE4"/>
<path d="M68.3615 79.8822L72.7991 30.4522H49.5V85.0817L68.3615 79.8822Z" fill="#2965F1"/>
<path d="M32.8919 51.9089L33.5315 59.0042H49.5V51.9089H32.8919ZM49.5 37.5477H31.6068L32.2555 44.6431H49.5V37.5477ZM49.5 77.7186V70.3364L49.4687 70.3447L41.5216 68.2109L41.0135 62.552H33.8503L34.85 73.6928L49.4672 77.7277L49.5 77.7186Z" fill="#EBEBEB"/>
<path d="M34.4146 10H43.0572V13.5938H38.0288V17.1875H43.0572V20.7812H34.4146V10ZM44.7858 10H53.4285V13.125H48.4V13.75H53.4285V20.9375H44.7858V17.6562H49.8143V17.0312H44.7858V10ZM55.157 10H63.7997V13.125H58.7712V13.75H63.7997V20.9375H55.157V17.6562H60.1855V17.0312H55.157V10Z" fill="black"/>
<path d="M58.2623 59.0042L57.434 68.2064L49.4753 70.3424V77.7242L64.1041 73.6928L64.2115 72.4941L65.8883 53.8142L66.0624 51.9089L67.3506 37.5477H49.4753V44.6431H59.5304L58.8811 51.9089H49.4753V59.0042H58.2623Z" fill="white"/>
</g>
<defs>
<clipPath id="clip0_95_75">
<rect width="57" height="80" fill="white" transform="translate(21 10)"/>
</clipPath>
</defs>
</svg>
