<svg width="100" height="100" viewBox="0 0 100 100" fill="none" xmlns="http://www.w3.org/2000/svg">
<rect width="100" height="100" rx="50" fill="white"/>
<path d="M50 10.0133L85.3333 30V69.9866L50 89.9733L14.6667 69.9866V30L50 10.0133Z" fill="white"/>
<path d="M79.0267 68.6L51.1734 84.3733V72.1066L68.5334 62.5466L79.0267 68.6ZM80.9333 66.88V33.92L70.7467 39.8V61L80.9333 66.88ZM20.8667 68.6L48.72 84.36V72.0933L31.36 62.5466L20.8667 68.6ZM18.96 66.88V33.92L29.1467 39.8V61L18.96 66.88ZM20.1467 31.7866L48.72 15.6266V27.4933L30.4134 37.56L30.2667 37.64L20.1467 31.7866ZM79.7334 31.7866L51.1734 15.6266V27.4933L69.4667 37.5733L69.6134 37.6533L79.7334 31.7866Z" fill="#8ED6FB"/>
<path d="M48.72 69.3067L31.6 59.88V41.2267L48.72 51.1067V69.3067ZM51.1733 69.3067L68.2933 59.8933V41.2267L51.1733 51.1067V69.3067ZM32.7466 39.0667L49.9466 29.6133L67.1333 39.0667L49.9466 48.9867L32.7466 39.0667Z" fill="#1C78C0"/>
</svg>
