<svg width="100" height="100" viewBox="0 0 100 100" fill="none" xmlns="http://www.w3.org/2000/svg">
<rect width="100" height="100" rx="50" fill="white"/>
<path d="M26.8194 83.5745L21.6614 25.7219H78.3386L73.1752 83.5655L49.9653 90L26.8194 83.5745Z" fill="#E34F26"/>
<path d="M50 85.0817L68.7547 79.8822L73.1672 30.4522H50V85.0817Z" fill="#EF652A"/>
<path d="M50 51.9089H40.6109L39.9625 44.6431H50V37.5477H32.2081L32.378 39.4513L34.1219 59.0042H50V51.9089ZM50 70.3364L49.9689 70.3447L42.0667 68.2109L41.5616 62.552H34.4389L35.433 73.6928L49.9673 77.7277L50 77.7186V70.3364Z" fill="#EBEBEB"/>
<path d="M26.9347 10H30.5405V13.5625H33.8389V10H37.4448V20.7881H33.8391V17.1756H30.5406V20.7881H26.9348L26.9347 10ZM42.1866 13.5775H39.0122V10H48.9684V13.5775H45.7927V20.7881H42.1867L42.1866 13.5775ZM50.5486 10H54.3084L56.6213 13.7906L58.9317 10H62.693V20.7881H59.102V15.4409L56.6213 19.2767H56.5592L54.0767 15.4409V20.7881H50.5486V10ZM64.4875 10H68.0944V17.2222H73.1652V20.7881H64.4875V10Z" fill="black"/>
<path d="M49.9755 51.9089V59.0042H58.7126L57.8891 68.2064L49.9755 70.3424V77.7242L64.5214 73.6928L64.6281 72.4941L66.2955 53.8142L66.4686 51.9089H64.5566H49.9755ZM49.9755 37.5477V44.6431H67.1142L67.2566 43.0483L67.5798 39.4513L67.7495 37.5477H49.9755Z" fill="white"/>
</svg>
